<svg width="1200" height="420" viewBox="0 0 1200 420" fill="none" xmlns="http://www.w3.org/2000/svg" role="img" aria-labelledby="title desc">
  <title id="title">Shawn Si GitHub profile banner</title>
  <desc id="desc">Editorial banner with a geometric orbit mark, quiet typography, and layered frame motifs inspired by a photography portfolio.</desc>
  <defs>
    <linearGradient id="bg" x1="40" y1="28" x2="1092" y2="402" gradientUnits="userSpaceOnUse">
      <stop stop-color="#F7F4EE"/>
      <stop offset="1" stop-color="#F1EEE7"/>
    </linearGradient>
    <linearGradient id="frameOne" x1="0" y1="0" x2="1" y2="1">
      <stop stop-color="#A7B9C7"/>
      <stop offset="1" stop-color="#2A3139"/>
    </linearGradient>
    <linearGradient id="frameTwo" x1="0" y1="0" x2="1" y2="1">
      <stop stop-color="#DFC8B5"/>
      <stop offset="1" stop-color="#7D6051"/>
    </linearGradient>
    <linearGradient id="frameThree" x1="0" y1="0" x2="1" y2="1">
      <stop stop-color="#DCE5E1"/>
      <stop offset="1" stop-color="#50636B"/>
    </linearGradient>
  </defs>

  <rect width="1200" height="420" rx="32" fill="url(#bg)"/>
  <rect x="28" y="28" width="1144" height="364" rx="24" stroke="#D8D2C6"/>
  <path d="M620 66H1094" stroke="#D8D2C6" stroke-dasharray="4 10"/>
  <path d="M620 354H1094" stroke="#D8D2C6" stroke-dasharray="4 10"/>
  <circle cx="1048" cy="92" r="60" fill="#E6E0D3"/>
  <circle cx="1048" cy="92" r="60" stroke="#D8D2C6"/>

  <g opacity="0.72">
    <path d="M860 172L976 172" stroke="#1466B8" stroke-width="2"/>
    <path d="M900 252L1040 252" stroke="#1F2730" stroke-width="1.5"/>
    <path d="M824 304L964 304" stroke="#8E8A83" stroke-width="1.5"/>
  </g>

  <g transform="translate(76 84)">
    <circle cx="72" cy="72" r="58" stroke="#1A1E24" stroke-width="6"/>
    <path d="M72 34L72 68" stroke="#1A1E24" stroke-width="6" stroke-linecap="round"/>
    <path d="M48 50L72 70" stroke="#1A1E24" stroke-width="6" stroke-linecap="round"/>
    <path d="M96 50L72 70" stroke="#1A1E24" stroke-width="6" stroke-linecap="round"/>
    <path d="M72 20C106 20 126 42 118 64C110 86 84 84 74 98C64 112 74 126 96 126C118 126 130 112 132 96" stroke="#1A1E24" stroke-width="9" stroke-linecap="round"/>
    <path d="M72 20C106 20 126 42 118 64C110 86 84 84 74 98C64 112 74 126 96 126C118 126 130 112 132 96" stroke="#1A1E24" stroke-width="9" stroke-linecap="round" transform="rotate(120 72 72)"/>
    <path d="M72 20C106 20 126 42 118 64C110 86 84 84 74 98C64 112 74 126 96 126C118 126 130 112 132 96" stroke="#1A1E24" stroke-width="9" stroke-linecap="round" transform="rotate(240 72 72)"/>
    <circle cx="72" cy="72" r="5.5" fill="#1A1E24"/>
  </g>

  <text x="252" y="104" fill="#6E6A63" font-family="Helvetica, Arial, sans-serif" font-size="16" letter-spacing="4">GITHUB PROFILE</text>
  <text x="252" y="180" fill="#161B20" font-family="Georgia, 'Times New Roman', serif" font-size="62">Shaowen Si</text>
  <text x="252" y="226" fill="#161B20" font-family="Georgia, 'Times New Roman', serif" font-size="28" font-style="italic">Engineer by training. Photographer by instinct.</text>
  <text x="252" y="274" fill="#5B6168" font-family="Helvetica, Arial, sans-serif" font-size="19">CS student building full-stack systems around images, interfaces,</text>
  <text x="252" y="302" fill="#5B6168" font-family="Helvetica, Arial, sans-serif" font-size="19">and the quiet details that make digital work feel intentional.</text>
  <text x="252" y="352" fill="#1466B8" font-family="Helvetica, Arial, sans-serif" font-size="15" letter-spacing="3">NEXT.JS / TYPESCRIPT / SUPABASE / R2 / IMAGE PIPELINES</text>

  <g transform="translate(760 106)">
    <rect x="0" y="0" width="252" height="138" rx="16" fill="#FAF7F2" stroke="#D8D2C6"/>
    <rect x="12" y="12" width="228" height="114" rx="12" fill="url(#frameOne)"/>
    <circle cx="44" cy="34" r="7" fill="#F7F4EE" fill-opacity="0.68"/>
    <circle cx="72" cy="46" r="5" fill="#F7F4EE" fill-opacity="0.52"/>
    <circle cx="98" cy="36" r="8" fill="#F7F4EE" fill-opacity="0.64"/>
    <path d="M16 100C50 82 80 90 104 74C122 62 152 62 188 86C204 96 220 102 236 106V126H12V108L16 100Z" fill="#151B22" fill-opacity="0.32"/>
  </g>

  <g transform="translate(948 184) rotate(3)">
    <rect x="0" y="0" width="132" height="164" rx="14" fill="#FAF7F2" stroke="#D8D2C6"/>
    <rect x="10" y="10" width="112" height="144" rx="10" fill="url(#frameTwo)"/>
    <circle cx="64" cy="54" r="30" fill="#F3E8DD" fill-opacity="0.92"/>
    <path d="M36 126C42 108 50 92 64 86C76 92 88 106 92 126C80 132 48 132 36 126Z" fill="#11212A" fill-opacity="0.74"/>
    <path d="M54 82C54 66 60 56 66 56C74 56 78 66 78 82C78 92 72 98 66 98C60 98 54 92 54 82Z" fill="#18232C" fill-opacity="0.8"/>
  </g>

  <g transform="translate(744 258) rotate(-4)">
    <rect x="0" y="0" width="170" height="104" rx="14" fill="#FAF7F2" stroke="#D8D2C6"/>
    <rect x="10" y="10" width="150" height="84" rx="10" fill="url(#frameThree)"/>
    <path d="M20 74C46 52 64 44 88 50C108 56 124 48 150 24V94H10V80L20 74Z" fill="#F4F1EA" fill-opacity="0.48"/>
    <path d="M10 90C38 64 58 52 78 56C94 58 110 50 134 30C142 40 148 52 160 62V94H10V90Z" fill="#20323A" fill-opacity="0.36"/>
  </g>

  <path d="M720 88C752 104 772 126 780 154" stroke="#8D8A84" stroke-width="1.5" stroke-dasharray="5 9"/>
  <path d="M1032 172C1042 180 1052 192 1056 206" stroke="#8D8A84" stroke-width="1.5" stroke-dasharray="5 9"/>
  <path d="M866 348C884 338 906 326 930 304" stroke="#8D8A84" stroke-width="1.5" stroke-dasharray="5 9"/>
</svg>
